<svg xmlns="http://www.w3.org/2000/svg" 
     viewBox="0 0 640 512" 
     width="32" height="32" 
     fill="#6B8DD6" 
     role="img" aria-labelledby="gradCapTitle">
  <title id="gradCapTitle">Graduation Cap Icon</title>
  <path d="M622.34 153.2l-275.5-99.7c-15.9-5.8-33.7-5.8-49.6 0l-275.5 99.7c-18.6 6.7-18.6 33.1 0 39.8l275.5 99.7c15.9 5.8 33.7 5.8 49.6 0l275.5-99.7c18.6-6.7 18.6-33.1 0-39.8zM320 352c-35.3 0-64 28.7-64 64v32c0 17.7 14.3 32 32 32h64c17.7 0 32-14.3 32-32v-32c0-35.3-28.7-64-64-64zm-192-96v96c0 53 43 96 96 96h32v-64c0-53 43-96 96-96s96 43 96 96v64h32c53 0 96-43 96-96v-96l-192 69.5c-15.9 5.8-33.7 5.8-49.6 0L128 256z"/>
</svg>